<svg width="20" height="31" viewBox="0 0 20 31" fill="none" xmlns="http://www.w3.org/2000/svg">
<path d="M7.50002 29.3333C7.96026 29.3333 8.33335 28.9602 8.33335 28.5C8.33335 28.0398 7.96026 27.6667 7.50002 27.6667C7.03978 27.6667 6.66669 28.0398 6.66669 28.5C6.66669 28.9602 7.03978 29.3333 7.50002 29.3333Z" stroke="#222222" stroke-linecap="round" stroke-linejoin="round"/>
<path d="M16.6666 29.3333C17.1269 29.3333 17.5 28.9602 17.5 28.5C17.5 28.0398 17.1269 27.6667 16.6666 27.6667C16.2064 27.6667 15.8333 28.0398 15.8333 28.5C15.8333 28.9602 16.2064 29.3333 16.6666 29.3333Z" stroke="#222222" stroke-linecap="round" stroke-linejoin="round"/>
<path d="M0.833313 11.8333H4.16665L6.39998 22.9917C6.47618 23.3753 6.6849 23.72 6.9896 23.9653C7.2943 24.2105 7.67556 24.3408 8.06665 24.3333H16.1666C16.5577 24.3408 16.939 24.2105 17.2437 23.9653C17.5484 23.72 17.7571 23.3753 17.8333 22.9917L19.1666 16H4.99998" stroke="#222222" stroke-linecap="round" stroke-linejoin="round"/>
<path d="M12.5 4.33334V8.66667" stroke="#222222" stroke-linecap="round" stroke-linejoin="round"/>
<path d="M10.3333 6.5H14.6666" stroke="#222222" stroke-linecap="round" stroke-linejoin="round"/>
</svg>
