<svg width="37" height="37" viewBox="0 0 37 37" fill="none" xmlns="http://www.w3.org/2000/svg">
<g clip-path="url(#clip0_1_38)">
<path d="M16.4532 6.21044L34.5643 11.0633L30.3585 26.7596L12.2474 21.9067L16.4532 6.21044Z" stroke="#E13535" stroke-width="2" stroke-linecap="round" stroke-linejoin="round"/>
<path d="M14.8356 12.2475L10.006 10.9534L5.41318 13.605L3.79556 19.6421L12.2474 21.9067L14.8356 12.2475Z" stroke="#E13535" stroke-width="2" stroke-linecap="round" stroke-linejoin="round"/>
<path d="M23.3076 31.3407C21.6405 30.8941 20.6512 29.1805 21.0979 27.5134C21.5445 25.8463 23.2581 24.857 24.9252 25.3037C26.5923 25.7504 27.5816 27.464 27.1349 29.131C26.6882 30.7981 24.9746 31.7874 23.3076 31.3407Z" stroke="#E13535" stroke-width="2" stroke-linecap="round" stroke-linejoin="round"/>
<path d="M7.61127 27.1349C5.94419 26.6882 4.95487 24.9747 5.40156 23.3076C5.84825 21.6405 7.56181 20.6512 9.22889 21.0979C10.896 21.5446 11.8853 23.2581 11.4386 24.9252C10.9919 26.5923 9.27835 27.5816 7.61127 27.1349Z" stroke="#E13535" stroke-width="2" stroke-linecap="round" stroke-linejoin="round"/>
</g>
<defs>
<clipPath id="clip0_1_38">
<rect width="30" height="30" fill="white" transform="matrix(-0.965926 -0.258819 -0.258819 0.965926 36.7423 7.76459)"/>
</clipPath>
</defs>
</svg>
