<svg width="186" height="186" viewBox="0 0 186 186" fill="none" xmlns="http://www.w3.org/2000/svg">
<g clip-path="url(#clip0_2_923)">
<path d="M92.9911 6.04934C45.0512 6.04934 6.04946 45.0511 6.04946 92.9918C6.04946 140.932 45.0513 179.936 92.9911 179.936C140.931 179.936 179.935 140.932 179.935 92.9918C179.935 45.0511 140.931 6.04934 92.9911 6.04934ZM92.9911 185.982C41.7156 185.982 0 144.266 0 92.9918C0 41.7164 41.7157 -0.00012207 92.9911 -0.00012207C144.266 -0.00012207 185.982 41.7163 185.982 92.9918C185.982 144.266 144.266 185.982 92.9911 185.982Z" fill="#030405"/>
<path d="M98.2339 92.9915C98.2339 95.8874 95.8881 98.235 92.9912 98.235C90.0955 98.235 87.748 95.8874 87.748 92.9915C87.748 90.0956 90.0955 87.7481 92.9912 87.7481C95.8881 87.7481 98.2339 90.0956 98.2339 92.9915Z" fill="#030405"/>
<path d="M91.0779 95.1879L57.4703 62.0397L94.9049 90.7955L91.0779 95.1879Z" fill="#030405"/>
<path d="M91.0779 90.7951L137.519 54.1905L94.9051 95.1875L91.0781 90.7951H91.0779Z" fill="#030405"/>
<path d="M92.991 28.8047C91.784 28.8047 90.8062 27.8268 90.8062 26.6199V17.9271C90.8062 16.7201 91.784 15.7422 92.991 15.7422C94.1977 15.7422 95.1757 16.7201 95.1757 17.9271V26.6199C95.1757 27.8268 94.1977 28.8047 92.991 28.8047Z" fill="#030405"/>
<path d="M59.8079 37.6974C59.0525 37.6974 58.3186 37.3056 57.9139 36.6043L53.5678 29.0763C52.964 28.0317 53.3224 26.6953 54.3673 26.0922C55.4148 25.4884 56.749 25.8475 57.3514 26.8917L61.6975 34.4197C62.3012 35.4643 61.9427 36.8006 60.8981 37.4038C60.5538 37.6029 60.1783 37.6974 59.8079 37.6974Z" fill="#030405"/>
<path d="M35.5098 61.9911C35.1393 61.9911 34.7637 61.8965 34.4196 61.6974L26.8916 57.3513C25.8468 56.7482 25.4883 55.4119 26.0922 54.3672C26.6939 53.3231 28.0323 52.9639 29.0763 53.5678L36.6043 57.9139C37.6491 58.517 38.0076 59.8534 37.4037 60.898C36.999 61.5986 36.2652 61.9911 35.5098 61.9911Z" fill="#030405"/>
<path d="M26.6198 95.1768H17.927C16.7201 95.1768 15.7422 94.1989 15.7422 92.9919C15.7422 91.785 16.7201 90.8071 17.927 90.8071H26.6198C27.8268 90.8071 28.8047 91.785 28.8047 92.9919C28.8047 94.1989 27.8268 95.1768 26.6198 95.1768Z" fill="#030405"/>
<path d="M27.9861 132.709C27.2307 132.709 26.4968 132.317 26.0922 131.616C25.4883 130.57 25.8468 129.234 26.8916 128.632L34.4196 124.286C35.4657 123.683 36.8013 124.041 37.4037 125.085C38.0076 126.13 37.6491 127.466 36.6043 128.068L29.0763 132.415C28.7322 132.615 28.3566 132.709 27.9861 132.709Z" fill="#030405"/>
<path d="M55.4573 160.185C55.0867 160.185 54.7111 160.089 54.367 159.891C53.3222 159.288 52.9637 157.952 53.5676 156.907L57.9137 149.379C58.5183 148.335 59.8532 147.975 60.8978 148.579C61.9425 149.182 62.3009 150.52 61.6973 151.563L57.3511 159.092C56.9464 159.792 56.2126 160.185 55.4573 160.185Z" fill="#030405"/>
<path d="M92.991 170.24C91.784 170.24 90.8062 169.262 90.8062 168.055V159.362C90.8062 158.156 91.784 157.178 92.991 157.178C94.1977 157.178 95.1757 158.156 95.1757 159.362V168.055C95.1757 169.262 94.1977 170.24 92.991 170.24Z" fill="#030405"/>
<path d="M130.526 160.185C129.771 160.185 129.036 159.793 128.632 159.092L124.285 151.563C123.681 150.52 124.039 149.182 125.084 148.579C126.128 147.975 127.466 148.331 128.068 149.379L132.416 156.907C133.019 157.952 132.661 159.288 131.615 159.891C131.272 160.089 130.896 160.185 130.526 160.185Z" fill="#030405"/>
<path d="M157.998 132.709C157.628 132.709 157.252 132.615 156.906 132.417L149.378 128.07C148.333 127.466 147.976 126.13 148.579 125.085C149.183 124.041 150.521 123.685 151.563 124.286L159.093 128.632C160.138 129.234 160.494 130.57 159.892 131.616C159.488 132.317 158.753 132.709 157.998 132.709Z" fill="#030405"/>
<path d="M168.057 95.1768H159.362C158.156 95.1768 157.177 94.1989 157.177 92.9919C157.177 91.785 158.156 90.8071 159.362 90.8071H168.057C169.261 90.8071 170.241 91.785 170.241 92.9919C170.241 94.1989 169.261 95.1768 168.057 95.1768Z" fill="#030405"/>
<path d="M150.473 61.9911C149.718 61.9911 148.983 61.5993 148.579 60.898C147.976 59.8526 148.332 58.517 149.378 57.9132L156.906 53.5671C157.95 52.9646 159.29 53.3202 159.892 54.3672C160.494 55.4126 160.138 56.7482 159.093 57.352L151.563 61.6982C151.219 61.8964 150.843 61.9911 150.473 61.9911Z" fill="#030405"/>
<path d="M126.176 37.6973C125.804 37.6973 125.428 37.6029 125.084 37.4038C124.039 36.8006 123.681 35.4643 124.285 34.4196L128.632 26.8917C129.234 25.8454 130.572 25.4876 131.615 26.0922C132.661 26.6953 133.019 28.0316 132.416 29.0763L128.068 36.6043C127.664 37.3056 126.929 37.6973 126.176 37.6973Z" fill="#030405"/>
</g>
<defs>
<clipPath id="clip0_2_923">
<rect width="186" height="186" fill="white"/>
</clipPath>
</defs>
</svg>
